<svg width="34" height="34" viewBox="0 0 34 34" fill="none" xmlns="http://www.w3.org/2000/svg">
<path d="M15.3001 3.47619V6.01587C20.2517 6.01587 22.7275 6.77778 25.8911 9.25397C27.0373 10.2275 29.6048 13 29.9487 16.2381C30.4274 20.746 29.3985 23.3492 25.8223 26.9048H29.7424C31.049 25.5079 33.5111 21.419 32.9059 16.2381C32.1494 9.76191 26.4267 5.9203 24.7907 5.25397C22.4524 4.30159 20.5268 3.15873 15.3001 3.47619Z" fill="#B38F3A"/>
<path d="M5.32803 27.8571V23.0952C4.77785 22.1217 3.92659 19.6629 3.92659 17.5079C3.92659 15.8571 4.408 14.3333 5.32803 12.9365V8.2381C3.51396 10.2063 0.635442 12.9365 1.03814 18.0794C1.411 22.8413 2.23325 24.2381 5.32803 27.8571Z" fill="#B38F3A"/>
<path d="M3.05853 33H27.4729L31.8055 28.619H13.5808V1H3.53994L6.49716 4.2381V28.619L3.05853 33Z" fill="#B38F3A"/>
<path d="M5.32803 12.9365C4.408 14.3333 3.92659 15.8571 3.92659 17.5079C3.92659 19.6629 4.77785 22.1217 5.32803 23.0952V27.8571C2.23325 24.2381 1.411 22.8413 1.03814 18.0794C0.635442 12.9365 3.51396 10.2063 5.32803 8.2381M5.32803 12.9365C5.32803 11.1587 5.32803 9.06349 5.32803 8.2381M5.32803 12.9365V8.2381M3.05853 33H27.4729L31.8055 28.619H13.5808V1H3.53994L6.49716 4.2381V28.619L3.05853 33ZM15.3001 3.47619V6.01587C20.2517 6.01587 22.7275 6.77778 25.8911 9.25397C27.0373 10.2275 29.6048 13 29.9487 16.2381C30.4274 20.746 29.3985 23.3492 25.8223 26.9048H29.7424C31.049 25.5079 33.5111 21.419 32.9059 16.2381C32.1494 9.76191 26.4267 5.9203 24.7907 5.25397C22.4524 4.30159 20.5268 3.15873 15.3001 3.47619Z" stroke="#746032"/>
<path d="M5.32803 12.9365C4.408 14.3333 3.92659 15.8571 3.92659 17.5079C3.92659 19.6629 4.77785 22.1217 5.32803 23.0952V27.8571C2.23325 24.2381 1.411 22.8413 1.03814 18.0794C0.635442 12.9365 3.51396 10.2063 5.32803 8.2381M5.32803 12.9365C5.32803 11.1587 5.32803 9.06349 5.32803 8.2381M5.32803 12.9365V8.2381M3.05853 33H27.4729L31.8055 28.619H13.5808V1H3.53994L6.49716 4.2381V28.619L3.05853 33ZM15.3001 3.47619V6.01587C20.2517 6.01587 22.7275 6.77778 25.8911 9.25397C27.0373 10.2275 29.6048 13 29.9487 16.2381C30.4274 20.746 29.3985 23.3492 25.8223 26.9048H29.7424C31.049 25.5079 33.5111 21.419 32.9059 16.2381C32.1494 9.76191 26.4267 5.9203 24.7907 5.25397C22.4524 4.30159 20.5268 3.15873 15.3001 3.47619Z" stroke="#C1973B"/>
</svg>
