<svg width="24" height="24" viewBox="0 0 24 24" fill="none" xmlns="http://www.w3.org/2000/svg">
<path fill-rule="evenodd" clip-rule="evenodd" d="M17.0667 9.6C17.0667 13.7237 13.7237 17.0667 9.6 17.0667C5.47627 17.0667 2.13333 13.7237 2.13333 9.6C2.13333 5.47627 5.47627 2.13333 9.6 2.13333C13.7237 2.13333 17.0667 5.47627 17.0667 9.6ZM15.5922 17.1007C13.9499 18.4144 11.8667 19.2 9.6 19.2C4.29807 19.2 0 14.9019 0 9.6C0 4.29807 4.29807 0 9.6 0C14.9019 0 19.2 4.29807 19.2 9.6C19.2 11.8667 18.4144 13.9499 17.1007 15.5922L23.6876 22.1791C24.1041 22.5956 24.1041 23.271 23.6876 23.6876C23.271 24.1041 22.5956 24.1041 22.1791 23.6876L15.5922 17.1007Z" fill="white"/>
</svg>
