<svg width="60" height="40" viewBox="0 0 60 40" fill="none" xmlns="http://www.w3.org/2000/svg">
<path d="M55.9961 35.5942L50.6839 34.4348V33.5072L55.8219 33.2754L55.7349 31.5362H49.2034L48.8551 35.942L54.2544 37.2174V38.029L48.5938 38.3768L48.4197 40H56.3445L55.9961 35.5942ZM5.13806 34.8986L5.05097 36.5217L6.96686 36.6377V38.2609L2.87383 38.1449L3.048 33.3913L8.62149 33.2754L8.5344 31.5362H1.30629L0.696689 40H8.88274L8.70857 34.7826L5.13806 34.8986ZM39.8853 38.029V36.5217L43.717 36.4058V34.7826L39.7982 34.6667V33.1594L44.9362 33.0435V31.3044H37.9694L37.7952 40H45.1104L45.0233 38.2609L39.8853 38.029ZM34.3118 40L33.6151 31.4203H31.7863L29.0866 35.4783L26.387 31.4203H24.5582L23.9486 40H26.1257L26.2999 34.4348L29.0866 38.2609L31.8734 34.4348L32.0475 40H34.3118ZM25.0807 0H20.7264L20.3781 26.5507H25.6032L25.0807 0ZM42.8462 0H29.2608L28.7383 26.5507H43.8041L42.8462 0ZM38.6661 20.7536L33.8763 20.9855L33.6151 5.33333L38.6661 5.56522V20.7536ZM59.1312 5.7971L58.6087 0H45.1975L45.3717 5.10145L49.6389 5.33333L50.0743 26.5507H55.3865L53.819 5.56522L59.1312 5.7971ZM12.192 26.5507H17.9397L14.195 14.6087L17.1559 12.4058L15.1529 0H0.522518L0 5.7971L3.30926 5.68116L1.74171 26.6667H6.87977L7.05394 19.942L10.7115 17.2754L12.192 26.5507ZM7.3152 5.33333L11.4953 5.21739L12.0178 10.5507L7.14103 13.5652L7.3152 5.33333ZM18.6363 40H20.8135L19.0718 31.4203H13.8466L12.1049 40H14.2821L14.6304 37.7971L18.2009 37.913L18.6363 40ZM14.9787 36.1739L15.4142 33.3913L17.5042 33.2754L17.9397 36.058L14.9787 36.1739Z" fill="white"/>
</svg>
