<svg xmlns="http://www.w3.org/2000/svg" width="132" height="132" viewBox="0 0 132 132" fill="none">
<rect x="52" y="48.9999" width="28" height="34" fill="#C8AC6E"/>
<path d="M21 57.9999L53 57.9999V73.9999H21L13 65.9999L21 57.9999Z" fill="#C8AC6E"/>
<path d="M50.7224 23.9282L66.7224 51.641L52 60.141L36 32.4282L39.3612 21.25L50.7224 23.9282Z" fill="#C8AC6E"/>
<path d="M50.7224 108.213L66.7224 80.4999L52 71.9999L36 99.7127L39.3612 110.891L50.7224 108.213Z" fill="#C8AC6E"/>
<path d="M110.722 57.9999L78.7224 57.9999V73.9999H110.722L118.722 65.9999L110.722 57.9999Z" fill="#C8AC6E"/>
<path d="M81 23.9282L65 51.641L79.7224 60.141L95.7224 32.4282L92.3612 21.25L81 23.9282Z" fill="#C8AC6E"/>
<path d="M81 108.213L65 80.4999L79.7224 71.9999L95.7224 99.7127L92.3612 110.891L81 108.213Z" fill="#C8AC6E"/>
</svg>